<svg width="85" height="84" viewBox="0 0 85 84" fill="none" xmlns="http://www.w3.org/2000/svg">
<path d="M42.5 20.5682C38.2186 20.5682 34.0333 21.8206 30.4735 24.1669C26.9136 26.5132 24.139 29.8482 22.5006 33.7499C20.8622 37.6518 20.4335 41.9452 21.2688 46.0873C22.104 50.2294 24.1657 54.0342 27.1931 57.0205C30.2205 60.0068 34.0777 62.0405 38.2768 62.8645C42.476 63.6884 46.8285 63.2655 50.784 61.6493C54.7395 60.0332 58.1204 57.2963 60.499 53.7847C62.8776 50.2732 64.1472 46.1448 64.1472 41.9215C64.1404 36.2603 61.8575 30.8329 57.7994 26.8299C53.7412 22.8268 48.2391 20.5749 42.5 20.5682ZM61.3723 40.5869H54.6387C54.5551 37.3925 54.0237 34.2249 53.0598 31.1741C54.1674 30.56 55.2173 29.8499 56.1973 29.0521C59.2325 32.1845 61.063 36.2645 61.3723 40.5869ZM43.853 23.4603C46.1394 24.1409 48.1824 26.4898 49.6558 29.8529C47.8057 30.5991 45.8468 31.0496 43.853 31.1875V23.4603ZM49.7302 24.6614C51.3264 25.3166 52.8241 26.1846 54.1814 27.2411C53.5178 27.7556 52.8199 28.2255 52.0924 28.6478C51.4711 27.2289 50.6779 25.8895 49.7302 24.6587V24.6614ZM41.1471 23.4603V31.1821C39.1532 31.0443 37.1943 30.5938 35.3443 29.8476C36.8176 26.4897 38.8606 24.1409 41.1471 23.4603ZM32.9076 28.6504C32.18 28.2274 31.4822 27.7565 30.8186 27.2411C32.1756 26.1828 33.6733 25.313 35.2698 24.656C34.3217 25.8885 33.5286 27.2297 32.9076 28.6504ZM41.1471 33.8553V40.5869H33.0645C33.1558 37.8011 33.6105 35.0384 34.4175 32.3672C36.5653 33.2152 38.8376 33.7163 41.1471 33.8513V33.8553ZM41.1471 43.2561V49.9917C38.8385 50.1269 36.5672 50.628 34.4202 51.4757C33.6132 48.8045 33.1585 46.0419 33.0672 43.2561H41.1471ZM41.1471 52.6609V60.3827C38.8606 59.7021 36.8176 57.3532 35.3443 53.9901C37.1946 53.2457 39.1535 52.797 41.1471 52.6609ZM35.2698 59.1843C33.6734 58.5282 32.1758 57.6593 30.8186 56.6019C31.4822 56.0874 32.1801 55.6174 32.9076 55.1952C33.5289 56.6141 34.3221 57.9535 35.2698 59.1843ZM43.853 60.3854V52.6609C45.8468 52.7987 47.8057 53.2492 49.6558 53.9954C48.1824 57.3532 46.1394 59.7021 43.853 60.3827V60.3854ZM52.0924 55.1952C52.8199 55.6174 53.5178 56.0874 54.1814 56.6019C52.8244 57.6602 51.3267 58.53 49.7302 59.1869C50.6783 57.9545 51.4715 56.6132 52.0924 55.1926V55.1952ZM43.853 49.9917V43.2561H51.9355C51.8442 46.0419 51.3895 48.8045 50.5825 51.4757C48.4347 50.6277 46.1624 50.1266 43.853 49.9917ZM43.853 40.5869V33.8513C46.1615 33.7161 48.4328 33.215 50.5798 32.3672C51.3868 35.0384 51.8415 37.8011 51.9328 40.5869H43.853ZM28.8027 29.0521C29.7827 29.8499 30.8326 30.56 31.9402 31.1741C30.9763 34.2249 30.4449 37.3925 30.3613 40.5869H23.6277C23.937 36.2645 25.7675 32.1845 28.8027 29.0521ZM23.6277 43.2561H30.3613C30.4471 46.4508 30.9807 49.6185 31.947 52.6689C30.8394 53.283 29.7894 53.9931 28.8095 54.7908C25.7718 51.6594 23.9389 47.5793 23.6277 43.2561ZM56.1973 54.7908C55.2173 53.9931 54.1674 53.283 53.0598 52.6689C54.0237 49.6181 54.5551 46.4505 54.6387 43.2561H61.3723C61.063 47.5785 59.2325 51.6584 56.1973 54.7908Z" fill="white"/>
<path d="M41.147 11.0367V17.8991H43.8529V11.0367C45.1283 10.7118 46.2398 9.93933 46.9791 8.86396C47.7183 7.78858 48.0346 6.48416 47.8687 5.19521C47.7027 3.90625 47.0659 2.72125 46.0775 1.86233C45.0892 1.00341 43.8172 0.529541 42.5 0.529541C41.1828 0.529541 39.9108 1.00341 38.9225 1.86233C37.9341 2.72125 37.2973 3.90625 37.1313 5.19521C36.9654 6.48416 37.2816 7.78858 38.0209 8.86396C38.7602 9.93933 39.8717 10.7118 41.147 11.0367ZM42.5 3.2187C43.0352 3.2187 43.5583 3.37524 44.0033 3.66853C44.4483 3.96182 44.7951 4.37869 44.9999 4.86641C45.2047 5.35414 45.2583 5.89082 45.1539 6.40858C45.0495 6.92635 44.7918 7.40195 44.4134 7.77524C44.0349 8.14852 43.5528 8.40274 43.0279 8.50573C42.503 8.60872 41.9589 8.55586 41.4645 8.35384C40.9701 8.15181 40.5475 7.8097 40.2501 7.37076C39.9528 6.93182 39.7941 6.41576 39.7941 5.88785C39.7941 5.17995 40.0792 4.50104 40.5866 4.00047C41.0941 3.49991 41.7823 3.2187 42.5 3.2187Z" fill="white"/>
<path d="M11.19 43.2561H18.1469V40.5869H11.19C10.8607 39.3289 10.0776 38.2325 8.98742 37.5032C7.89724 36.774 6.57487 36.462 5.26817 36.6257C3.96148 36.7895 2.76017 37.4177 1.88942 38.3926C1.01868 39.3675 0.538284 40.6222 0.538284 41.9215C0.538284 43.2208 1.01868 44.4755 1.88942 45.4504C2.76017 46.4254 3.96148 47.0536 5.26817 47.2173C6.57487 47.381 7.89724 47.069 8.98742 46.3398C10.0776 45.6105 10.8607 44.5141 11.19 43.2561ZM5.97035 44.5907C5.43518 44.5907 4.91202 44.4341 4.46704 44.1408C4.02205 43.8475 3.67523 43.4307 3.47043 42.9429C3.26563 42.4552 3.21204 41.9185 3.31645 41.4008C3.42086 40.883 3.67857 40.4074 4.057 40.0341C4.43542 39.6608 4.91757 39.4066 5.44246 39.3036C5.96735 39.2006 6.51142 39.2535 7.00586 39.4555C7.5003 39.6575 7.9229 39.9997 8.22023 40.4386C8.51756 40.8775 8.67625 41.3936 8.67625 41.9215C8.67625 42.6294 8.39117 43.3083 7.88371 43.8089C7.37626 44.3095 6.688 44.5907 5.97035 44.5907Z" fill="white"/>
<path d="M43.8529 72.8063V65.9439H41.147V72.8063C39.8717 73.1312 38.7602 73.9037 38.0209 74.9791C37.2816 76.0544 36.9654 77.3588 37.1313 78.6478C37.2973 79.9368 37.9341 81.1218 38.9225 81.9807C39.9108 82.8396 41.1828 83.3135 42.5 83.3135C43.8172 83.3135 45.0892 82.8396 46.0775 81.9807C47.0659 81.1218 47.7027 79.9368 47.8687 78.6478C48.0346 77.3588 47.7183 76.0544 46.9791 74.9791C46.2398 73.9037 45.1283 73.1312 43.8529 72.8063ZM42.5 80.6243C41.9648 80.6243 41.4417 80.4678 40.9967 80.1745C40.5517 79.8812 40.2049 79.4643 40.0001 78.9766C39.7953 78.4889 39.7417 77.9522 39.8461 77.4344C39.9505 76.9167 40.2082 76.4411 40.5866 76.0678C40.9651 75.6945 41.4472 75.4403 41.9721 75.3373C42.497 75.2343 43.0411 75.2871 43.5355 75.4892C44.0299 75.6912 44.4525 76.0333 44.7499 76.4722C45.0472 76.9112 45.2059 77.4272 45.2059 77.9552C45.2059 78.6631 44.9208 79.342 44.4134 79.8425C43.9059 80.3431 43.2176 80.6243 42.5 80.6243Z" fill="white"/>
<path d="M79.0296 36.5832C77.8333 36.5876 76.6722 36.9829 75.7279 37.7073C74.7835 38.4317 74.109 39.4443 73.81 40.5869H66.8531V43.2561H73.81C74.0647 44.2204 74.5885 45.0949 75.3218 45.7803C76.0551 46.4658 76.9686 46.9346 77.9585 47.1337C78.9484 47.3328 79.975 47.2541 80.9218 46.9065C81.8686 46.559 82.6976 45.9565 83.3148 45.1676C83.9319 44.3786 84.3124 43.4348 84.4131 42.4432C84.5138 41.4516 84.3306 40.4521 83.8843 39.5581C83.438 38.6641 82.7466 37.9114 81.8884 37.3855C81.0303 36.8597 80.0399 36.5817 79.0296 36.5832ZM79.0296 44.5907C78.4945 44.5907 77.9713 44.4341 77.5263 44.1408C77.0813 43.8475 76.7345 43.4307 76.5297 42.9429C76.3249 42.4552 76.2713 41.9185 76.3757 41.4008C76.4801 40.883 76.7379 40.4074 77.1163 40.0341C77.4947 39.6608 77.9769 39.4066 78.5017 39.3036C79.0266 39.2006 79.5707 39.2535 80.0651 39.4555C80.5596 39.6575 80.9822 39.9997 81.2795 40.4386C81.5768 40.8775 81.7355 41.3936 81.7355 41.9215C81.7355 42.6294 81.4505 43.3083 80.943 43.8089C80.4356 44.3094 79.7473 44.5907 79.0296 44.5907Z" fill="white"/>
<path d="M50.2634 7.66306L49.2117 10.1224L51.468 11.0612L52.5197 8.60194L50.2634 7.66306Z" fill="white"/>
<path d="M54.7765 9.54066L53.7259 12.0004L55.9839 12.9388L57.0345 10.479L54.7765 9.54066Z" fill="white"/>
<path d="M59.2573 11.4409L58.2074 13.8992L60.4628 14.8364L61.5127 12.3782L59.2573 11.4409Z" fill="white"/>
<path d="M70.9293 57.4468L69.9785 59.6743L72.4736 60.7106L73.4244 58.4832L70.9293 57.4468Z" fill="white"/>
<path d="M74.7347 48.543L73.7834 50.7688L76.278 51.8063L77.2293 49.5805L74.7347 48.543Z" fill="white"/>
<path d="M72.8344 52.996L71.8821 55.2215L74.3738 56.2589L75.3261 54.0334L72.8344 52.996Z" fill="white"/>
<path d="M33.4783 72.7663L32.4284 75.2246L34.6838 76.1618L35.7337 73.7035L33.4783 72.7663Z" fill="white"/>
<path d="M24.504 69.026L23.4522 71.4853L25.7085 72.4241L26.7603 69.9649L24.504 69.026Z" fill="white"/>
<path d="M29.0158 70.9051L27.9652 73.3648L30.2232 74.3032L31.2737 71.8435L29.0158 70.9051Z" fill="white"/>
<path d="M8.72122 32.0369L7.77035 34.2644L10.2654 35.3007L11.2163 33.0732L8.72122 32.0369Z" fill="white"/>
<path d="M10.6259 27.5852L9.67362 29.8107L12.1653 30.8481L13.1176 28.6226L10.6259 27.5852Z" fill="white"/>
<path d="M12.5273 23.1317L11.576 25.3576L14.0706 26.3951L15.0219 24.1692L12.5273 23.1317Z" fill="white"/>
<path d="M12.166 52.9948L9.67433 54.0322L10.6266 56.2577L13.1183 55.2203L12.166 52.9948Z" fill="white"/>
<path d="M14.0717 57.4464L11.5771 58.4839L12.5285 60.7097L15.0231 59.6722L14.0717 57.4464Z" fill="white"/>
<path d="M10.2658 48.5427L7.77071 49.5791L8.72157 51.8066L11.2166 50.7702L10.2658 48.5427Z" fill="white"/>
<path d="M60.4965 69.0263L58.2402 69.9651L59.2919 72.4244L61.5482 71.4856L60.4965 69.0263Z" fill="white"/>
<path d="M55.9832 70.9035L53.7257 71.8429L54.7774 74.3022L57.0349 73.3628L55.9832 70.9035Z" fill="white"/>
<path d="M51.4675 72.7823L49.2112 73.7211L50.2629 76.1804L52.5192 75.2415L51.4675 72.7823Z" fill="white"/>
<path d="M74.373 27.5837L71.8813 28.6211L72.8335 30.8466L75.3252 29.8092L74.373 27.5837Z" fill="white"/>
<path d="M76.2782 32.0358L73.7836 33.0733L74.7349 35.2992L77.2295 34.2617L76.2782 32.0358Z" fill="white"/>
<path d="M72.4731 23.1315L69.9784 24.1685L70.9299 26.3958L73.4247 25.3587L72.4731 23.1315Z" fill="white"/>
<path d="M25.7079 11.4164L23.4516 12.3553L24.5033 14.8146L26.7596 13.8757L25.7079 11.4164Z" fill="white"/>
<path d="M30.2228 9.54071L27.9653 10.4801L29.017 12.9394L31.2746 12L30.2228 9.54071Z" fill="white"/>
<path d="M34.7353 7.6642L32.479 8.60307L33.5307 11.0624L35.787 10.1235L34.7353 7.6642Z" fill="white"/>
<path d="M26.2362 59.8516L24.3231 57.9645L19.5256 62.6969C18.7009 62.2063 17.757 61.9448 16.794 61.9402C15.7236 61.9402 14.6773 62.2533 13.7873 62.8399C12.8974 63.4264 12.2037 64.2602 11.7941 65.2356C11.3845 66.2111 11.2773 67.2844 11.4861 68.32C11.695 69.3555 12.2104 70.3067 12.9672 71.0533C13.7241 71.7998 14.6884 72.3083 15.7382 72.5142C16.7879 72.7202 17.8761 72.6145 18.865 72.2105C19.8538 71.8064 20.699 71.1222 21.2937 70.2443C21.8884 69.3664 22.2058 68.3343 22.2058 67.2785C22.201 66.3285 21.936 65.3975 21.4386 64.584L26.2362 59.8516ZM16.794 69.9477C16.2588 69.9477 15.7356 69.7911 15.2906 69.4978C14.8457 69.2045 14.4988 68.7877 14.294 68.2999C14.0892 67.8122 14.0356 67.2755 14.14 66.7578C14.2445 66.24 14.5022 65.7644 14.8806 65.3911C15.259 65.0178 15.7412 64.7636 16.2661 64.6606C16.791 64.5576 17.335 64.6105 17.8295 64.8125C18.3239 65.0145 18.7465 65.3567 19.0438 65.7956C19.3412 66.2345 19.4999 66.7506 19.4999 67.2785C19.4999 67.9864 19.2148 68.6653 18.7073 69.1659C18.1999 69.6665 17.5116 69.9477 16.794 69.9477Z" fill="white"/>
<path d="M58.7638 23.9914L60.6769 25.8785L65.4744 21.1461C66.2991 21.6367 67.243 21.8982 68.206 21.9028C69.2764 21.9028 70.3227 21.5897 71.2127 21.0031C72.1026 20.4166 72.7963 19.5828 73.2059 18.6074C73.6155 17.6319 73.7227 16.5586 73.5139 15.523C73.305 14.4875 72.7896 13.5363 72.0328 12.7897C71.2759 12.0431 70.3116 11.5347 69.2618 11.3287C68.212 11.1228 67.1239 11.2285 66.135 11.6325C65.1462 12.0366 64.301 12.7208 63.7063 13.5987C63.1116 14.4766 62.7942 15.5087 62.7942 16.5645C62.799 17.5145 63.064 18.4455 63.5614 19.259L58.7638 23.9914ZM68.206 13.8953C68.7412 13.8953 69.2644 14.0519 69.7094 14.3452C70.1543 14.6385 70.5012 15.0553 70.706 15.543C70.9108 16.0308 70.9644 16.5674 70.86 17.0852C70.7555 17.603 70.4978 18.0786 70.1194 18.4519C69.741 18.8252 69.2588 19.0794 68.7339 19.1824C68.209 19.2853 67.665 19.2325 67.1705 19.0305C66.6761 18.8284 66.2535 18.4863 65.9562 18.0474C65.6588 17.6085 65.5001 17.0924 65.5001 16.5645C65.5001 15.8566 65.7852 15.1777 66.2927 14.6771C66.8001 14.1765 67.4884 13.8953 68.206 13.8953Z" fill="white"/>
<path d="M16.794 21.9028C17.757 21.8982 18.7009 21.6367 19.5256 21.1461L24.3231 25.8785L26.2362 23.9914L21.4386 19.259C21.936 18.4455 22.201 17.5145 22.2058 16.5645C22.2058 15.5087 21.8884 14.4766 21.2937 13.5987C20.699 12.7208 19.8538 12.0366 18.865 11.6325C17.8761 11.2285 16.7879 11.1228 15.7382 11.3287C14.6884 11.5347 13.7241 12.0431 12.9672 12.7897C12.2104 13.5363 11.695 14.4875 11.4861 15.523C11.2773 16.5586 11.3845 17.6319 11.7941 18.6074C12.2037 19.5828 12.8974 20.4166 13.7873 21.0031C14.6773 21.5897 15.7236 21.9028 16.794 21.9028ZM16.794 13.8953C17.3291 13.8953 17.8523 14.0519 18.2973 14.3452C18.7423 14.6385 19.0891 15.0553 19.2939 15.543C19.4987 16.0308 19.5523 16.5674 19.4479 17.0852C19.3435 17.603 19.0857 18.0786 18.7073 18.4519C18.3289 18.8252 17.8467 19.0794 17.3218 19.1824C16.797 19.2853 16.2529 19.2325 15.7585 19.0305C15.264 18.8284 14.8414 18.4863 14.5441 18.0474C14.2468 17.6085 14.0881 17.0924 14.0881 16.5645C14.0881 15.8566 14.3731 15.1777 14.8806 14.6771C15.388 14.1765 16.0763 13.8953 16.794 13.8953Z" fill="white"/>
<path d="M68.206 61.9402C67.243 61.9448 66.2991 62.2063 65.4744 62.6969L60.6769 57.9645L58.7638 59.8516L63.5614 64.584C63.064 65.3975 62.799 66.3285 62.7942 67.2785C62.7942 68.3343 63.1116 69.3664 63.7063 70.2443C64.301 71.1222 65.1462 71.8064 66.135 72.2105C67.1239 72.6145 68.212 72.7202 69.2618 72.5142C70.3116 72.3083 71.2759 71.7998 72.0328 71.0533C72.7896 70.3067 73.305 69.3555 73.5139 68.32C73.7227 67.2844 73.6155 66.2111 73.2059 65.2356C72.7963 64.2602 72.1026 63.4264 71.2127 62.8399C70.3227 62.2533 69.2764 61.9402 68.206 61.9402ZM68.206 69.9477C67.6709 69.9477 67.1477 69.7911 66.7027 69.4978C66.2577 69.2045 65.9109 68.7877 65.7061 68.2999C65.5013 67.8122 65.4477 67.2755 65.5521 66.7578C65.6565 66.24 65.9143 65.7644 66.2927 65.3911C66.6711 65.0178 67.1533 64.7636 67.6781 64.6606C68.203 64.5576 68.7471 64.6105 69.2415 64.8125C69.736 65.0145 70.1586 65.3567 70.4559 65.7956C70.7532 66.2345 70.9119 66.7506 70.9119 67.2785C70.9119 67.9864 70.6269 68.6653 70.1194 69.1659C69.612 69.6665 68.9237 69.9477 68.206 69.9477Z" fill="white"/>
</svg>
