<svg width="98" height="86" viewBox="0 0 98 86" fill="none" xmlns="http://www.w3.org/2000/svg">
<g clip-path="url(#clip0)">
<path d="M90.3438 9.1875C91.1894 9.1875 91.875 8.50194 91.875 7.65625C91.875 6.81056 91.1894 6.125 90.3438 6.125C89.4981 6.125 88.8125 6.81056 88.8125 7.65625C88.8125 8.50194 89.4981 9.1875 90.3438 9.1875Z" fill="black"/>
<path d="M84.2188 9.1875C85.0644 9.1875 85.75 8.50194 85.75 7.65625C85.75 6.81056 85.0644 6.125 84.2188 6.125C83.3731 6.125 82.6875 6.81056 82.6875 7.65625C82.6875 8.50194 83.3731 9.1875 84.2188 9.1875Z" fill="black"/>
<path d="M78.0938 9.1875C78.9394 9.1875 79.625 8.50194 79.625 7.65625C79.625 6.81056 78.9394 6.125 78.0938 6.125C77.2481 6.125 76.5625 6.81056 76.5625 7.65625C76.5625 8.50194 77.2481 9.1875 78.0938 9.1875Z" fill="black"/>
<path d="M93.4062 0H4.59375C3.37541 0 2.20697 0.483983 1.34548 1.34548C0.483983 2.20697 0 3.37541 0 4.59375L0 68.9062C0 70.1246 0.483983 71.293 1.34548 72.1545C2.20697 73.016 3.37541 73.5 4.59375 73.5H39.8125V82.6875H24.5V85.75H73.5V82.6875H58.1875V73.5H93.4062C94.6246 73.5 95.793 73.016 96.6545 72.1545C97.516 71.293 98 70.1246 98 68.9062V4.59375C98 3.37541 97.516 2.20697 96.6545 1.34548C95.793 0.483983 94.6246 0 93.4062 0ZM94.9375 68.9062C94.9375 69.3124 94.7762 69.7018 94.489 69.989C94.2018 70.2762 93.8124 70.4375 93.4062 70.4375H4.59375C4.18764 70.4375 3.79816 70.2762 3.51099 69.989C3.22383 69.7018 3.0625 69.3124 3.0625 68.9062V4.59375C3.0625 4.18764 3.22383 3.79816 3.51099 3.51099C3.79816 3.22383 4.18764 3.0625 4.59375 3.0625H93.4062C93.8124 3.0625 94.2018 3.22383 94.489 3.51099C94.7762 3.79816 94.9375 4.18764 94.9375 4.59375V68.9062Z" fill="black"/>
<path d="M70.4375 42.921H85.75V27.6085H70.4375V42.921ZM73.5 30.671H82.6875V39.8585H73.5V30.671Z" fill="black"/>
<path d="M49 42.875H64.3125V27.5625H49V42.875ZM52.0625 30.625H61.25V39.8125H52.0625V30.625Z" fill="black"/>
<path d="M26.0772 36.9261C28.3478 36.9261 30.1886 35.0854 30.1886 32.8147C30.1886 30.544 28.3478 28.7033 26.0772 28.7033C23.8065 28.7033 21.9658 30.544 21.9658 32.8147C21.9658 35.0854 23.8065 36.9261 26.0772 36.9261Z" fill="black"/>
<path d="M38.1511 21.6672C35.8579 19.3688 32.957 17.7719 29.7885 17.0637C26.6199 16.3556 23.3151 16.5655 20.2617 17.669C17.2083 18.7725 14.5327 20.7237 12.5489 23.2939C10.5651 25.864 9.35525 28.9465 9.06123 32.1799C8.7672 35.4133 9.40119 38.6634 10.8889 41.5493C12.3765 44.4351 14.6562 46.8369 17.4605 48.4731C20.2648 50.1092 23.4775 50.9119 26.7218 50.7869C29.9661 50.6619 33.1075 49.6144 35.7776 47.7674L50.6614 62.6511L54.9948 58.3177L40.1111 43.4339C42.3783 40.1481 43.4235 36.1723 43.0655 32.1963C42.7075 28.2203 40.9688 24.4951 38.1511 21.6672ZM18.375 26.0313C20.4677 24.2222 23.1677 23.2724 25.9321 23.3728C28.6966 23.4732 31.3205 24.6163 33.2766 26.5723C35.2326 28.5284 36.3757 31.1523 36.4761 33.9168C36.5765 36.6812 35.6267 39.3812 33.8176 41.4739C33.7334 41.5581 33.6416 41.6347 33.5497 41.7189C32.893 40.2891 31.84 39.0777 30.5155 38.2284C29.1909 37.3792 27.6506 36.9278 26.0772 36.9278C24.5038 36.9278 22.9634 37.3792 21.6389 38.2284C20.3144 39.0777 19.2613 40.2891 18.6047 41.7189C18.5128 41.6347 18.4209 41.5658 18.3367 41.4739C16.3029 39.4163 15.1654 36.6378 15.1726 33.7447C15.1798 30.8516 16.331 28.0787 18.375 26.0313Z" fill="black"/>
</g>
<defs>
<clipPath id="clip0">
<rect width="98" height="85.75" fill="white"/>
</clipPath>
</defs>
</svg>
