<svg width="98" height="95" viewBox="0 0 98 95" fill="none" xmlns="http://www.w3.org/2000/svg">
<g clip-path="url(#clip0)">
<path d="M51.5924 83.6905H42.4799C41.2105 83.6905 40.1831 84.7195 40.1831 85.9874C40.1831 87.2552 41.2105 88.2842 42.4799 88.2842H51.5924C52.8603 88.2842 53.8893 87.2552 53.8893 85.9874C53.8893 84.7195 52.8603 83.6905 51.5924 83.6905Z" fill="black"/>
<path d="M93.6344 23.1877H76.391V12.7079V5.94279C76.391 3.01811 74.0114 0.640076 71.0868 0.640076H22.9871C20.0624 0.640076 17.6829 3.01964 17.6829 5.94279V12.7063V16.7963C17.0857 16.634 16.4717 16.5237 15.8347 16.5237C15.3263 16.5237 14.8148 16.5789 14.3157 16.686L13.3693 16.8912C11.5043 17.2955 10.3145 19.1422 10.7172 21.0103C11.2516 23.4771 11.0878 27.7095 10.0848 29.2653C9.37584 30.3647 8.68831 30.9144 7.66237 31.729L2.37803 32.8698C1.78237 32.9985 1.26175 33.3583 0.932529 33.8697C0.60331 34.3812 0.488466 35.0044 0.617091 35.6L4.17572 52.0778C4.40847 53.1543 5.35937 53.8908 6.419 53.8908C6.57978 53.8908 6.74209 53.874 6.90594 53.8388L12.3005 52.6735C12.7477 52.7347 13.2055 52.8082 13.7154 52.9016C14.8271 53.1038 16.1669 53.3381 17.6829 53.4238V79.9757V88.9963C17.6829 91.9194 20.0624 94.299 22.9871 94.299H71.0868C74.0114 94.299 76.391 91.9194 76.391 88.9963V79.9757V47.4979L76.8182 47.2299H93.6344C95.7292 47.2299 97.4334 45.5256 97.4334 43.4309V26.9883C97.435 24.892 95.7307 23.1877 93.6344 23.1877ZM22.9871 5.23383H71.0868C71.4788 5.23383 71.7973 5.55233 71.7973 5.94279V10.4095H22.2766V5.94279C22.2766 5.55233 22.5951 5.23383 22.9871 5.23383ZM5.59212 36.8771L6.91206 36.5923L9.50294 48.5789L8.18147 48.8637L5.59212 36.8771ZM14.1457 48.3094L11.2179 34.7655C12.1489 33.9984 13.0478 33.1455 13.9451 31.7566C15.6861 29.0555 15.8484 24.3086 15.4044 21.1558C16.7304 20.9261 18.0458 21.8065 18.3367 23.0821C18.7058 24.6945 18.9569 28.0372 18.6935 28.8993C18.4562 29.6787 18.6491 30.5255 19.2003 31.1257C19.7516 31.726 20.58 31.9848 21.3763 31.8163L30.2789 29.8915C30.8685 29.7675 31.6908 29.9727 31.9097 30.622C32.0644 31.0783 31.9189 31.4442 31.8178 31.6203C31.2406 32.6371 31.5192 33.9249 32.464 34.6124C32.9556 34.9692 32.9724 35.4791 32.9571 35.6812C32.9418 35.8833 32.8484 36.3825 32.314 36.6597C31.7336 36.9598 31.3079 37.4942 31.1441 38.1281C30.9818 38.7621 31.0966 39.4343 31.4595 39.9779C31.5453 40.105 31.6035 40.2428 31.6372 40.399C31.752 40.9303 31.4963 41.477 31.0155 41.725C30.4351 42.0267 30.011 42.5596 29.8487 43.1935C29.6863 43.8275 29.8012 44.4997 30.1656 45.0417C30.3923 45.3817 30.4351 45.714 30.2958 46.06C30.1197 46.4964 29.6909 46.8364 29.1795 46.9466L21.7055 48.5606C20.7362 48.7703 19.7807 48.8714 18.7823 48.8714C17.2174 48.8714 15.7948 48.6126 14.5392 48.3829C14.406 48.3569 14.2758 48.3324 14.1457 48.3094ZM71.0868 89.7037H22.9871C22.5951 89.7037 22.2766 89.3852 22.2766 88.9947V82.271H71.7973V88.9947C71.7973 89.3852 71.4788 89.7037 71.0868 89.7037ZM41.3483 44.9315C41.3483 41.7955 43.9009 39.2429 47.0369 39.2429C50.1729 39.2429 52.7255 41.7955 52.7255 44.9315C52.7255 48.069 50.1729 50.6201 47.0369 50.6201C43.9009 50.6201 41.3483 48.069 41.3483 44.9315ZM54.5523 55.2154C57.4295 55.2154 59.7708 57.5566 59.7708 60.4339V77.6788H34.3015V60.4339C34.3015 57.5566 36.6428 55.2154 39.52 55.2154H54.5523ZM71.7973 77.6788H64.3646V60.4339C64.3646 55.3639 60.4997 51.1805 55.5629 50.6737C56.6716 49.0337 57.3178 47.0569 57.3178 44.9315C57.3178 39.2613 52.7041 34.6491 47.0354 34.6491C41.3652 34.6491 36.7531 39.2613 36.7531 44.9315C36.7531 47.0553 37.4008 49.0322 38.5079 50.6737C33.5696 51.1805 29.7063 55.3639 29.7063 60.4339V77.6788H22.2736V53.113C22.4068 53.0869 22.54 53.0777 22.6732 53.0486L30.1457 51.4347C32.1563 51.0014 33.8023 49.6324 34.5511 47.7781C34.9875 46.6955 35.0779 45.5501 34.8329 44.4568C36.0027 43.1062 36.5188 41.2504 36.1253 39.4358C36.1237 39.4282 36.1222 39.4205 36.1207 39.4129C36.9338 38.4865 37.4375 37.3089 37.534 36.0288C37.6397 34.6262 37.2461 33.2725 36.4483 32.1777C36.6505 31.1809 36.5908 30.1365 36.2569 29.1504C35.4683 26.8245 33.2021 25.261 30.6173 25.261C30.1733 25.261 29.7308 25.3085 29.3005 25.4019L23.3669 26.6851C23.2918 24.7741 22.9887 22.8463 22.8095 22.0592C22.6916 21.5416 22.4971 21.0578 22.272 20.5923V15.0063H71.7927V23.1893H67.888C65.7932 23.1893 64.0889 24.8935 64.0889 26.9883V43.4293V51.0381C64.0889 51.0902 64.1012 51.1376 64.1043 51.1897C64.1104 51.28 64.115 51.3658 64.1318 51.4546C64.1456 51.5266 64.1655 51.5924 64.1854 51.6613C64.2084 51.7364 64.2252 51.8129 64.2558 51.8849C64.2865 51.9615 64.3248 52.0304 64.3615 52.1023C64.3891 52.1529 64.4059 52.2065 64.4381 52.257C64.4442 52.2677 64.4549 52.2754 64.461 52.2861C64.5575 52.4346 64.6693 52.5709 64.7964 52.6919C64.8316 52.7255 64.8699 52.7516 64.9066 52.7837C65.0046 52.868 65.1088 52.943 65.2205 53.0088C65.2695 53.0395 65.3185 53.0655 65.3706 53.0915C65.4854 53.1482 65.6034 53.1926 65.7258 53.2309C65.7718 53.2446 65.8177 53.263 65.8637 53.2722C66.0321 53.312 66.2067 53.3381 66.3873 53.3381C66.3873 53.3381 66.3873 53.3381 66.3889 53.3381C66.3904 53.3381 66.3919 53.3381 66.3935 53.3381C66.5849 53.3365 66.7686 53.3059 66.9463 53.2615C66.9968 53.2477 67.0443 53.2309 67.0933 53.2155C67.2464 53.1665 67.3903 53.1038 67.5281 53.0241C67.5526 53.0088 67.5802 53.0042 67.6047 52.9905L71.7942 50.372V77.6788H71.7973ZM92.8412 42.6346H76.1598C76.1031 42.6346 76.0495 42.6469 75.9929 42.6515C75.9117 42.656 75.8306 42.6606 75.7494 42.676C75.6713 42.6897 75.5963 42.7142 75.5228 42.7357C75.4539 42.7556 75.385 42.7724 75.3176 42.8C75.2349 42.8321 75.1584 42.875 75.0803 42.9179C75.0359 42.9424 74.9868 42.9577 74.944 42.9853L68.6873 46.8946V43.4293V27.7815H92.8412V42.6346Z" fill="black"/>
<path d="M71.7972 32.1072C71.7972 33.3766 72.8262 34.4041 74.0941 34.4041H87.8095C89.0774 34.4041 90.1064 33.3766 90.1064 32.1072C90.1064 30.8378 89.0774 29.8104 87.8095 29.8104H74.0941C72.8262 29.8104 71.7972 30.8394 71.7972 32.1072Z" fill="black"/>
<path d="M82.7365 36.0119H74.0926C72.8247 36.0119 71.7957 37.0394 71.7957 38.3088C71.7957 39.5782 72.8247 40.6057 74.0926 40.6057H82.7365C84.0044 40.6057 85.0334 39.5782 85.0334 38.3088C85.0334 37.0394 84.0044 36.0119 82.7365 36.0119Z" fill="black"/>
</g>
<defs>
<clipPath id="clip0">
<rect width="98" height="94.9375" fill="white"/>
</clipPath>
</defs>
</svg>
