<svg width="98" height="98" viewBox="0 0 98 98" fill="none" xmlns="http://www.w3.org/2000/svg">
<path d="M7.90323 9.48386C8.7762 9.48386 9.48388 8.77618 9.48388 7.90322C9.48388 7.03025 8.7762 6.32257 7.90323 6.32257C7.03026 6.32257 6.32259 7.03025 6.32259 7.90322C6.32259 8.77618 7.03026 9.48386 7.90323 9.48386Z" fill="black"/>
<path d="M37.9355 6.32257H18.9677V9.48386H37.9355V6.32257Z" fill="black"/>
<path d="M33.1935 82.1935H23.7097C21.0953 82.1935 18.9677 84.3211 18.9677 86.9355C18.9677 89.5499 21.0953 91.6774 23.7097 91.6774H33.1935C35.8079 91.6774 37.9355 89.5499 37.9355 86.9355C37.9355 84.3211 35.8079 82.1935 33.1935 82.1935ZM33.1935 88.5161H23.7097C22.8372 88.5161 22.129 87.808 22.129 86.9355C22.129 86.063 22.8372 85.3548 23.7097 85.3548H33.1935C34.0661 85.3548 34.7742 86.063 34.7742 86.9355C34.7742 87.808 34.0661 88.5161 33.1935 88.5161Z" fill="black"/>
<path d="M93.2581 6.32258H56.7436C56.0086 2.72029 52.8157 0 49 0H7.90323C3.54539 0 0 3.54539 0 7.90323V90.0968C0 94.4546 3.54539 98 7.90323 98H49C53.3578 98 56.9032 94.4546 56.9032 90.0968V50.5806H93.2581C95.8725 50.5806 98 48.4531 98 45.8387V11.0645C98 8.45013 95.8725 6.32258 93.2581 6.32258ZM94.8387 11.0645V18.9677H50.5806V11.0645C50.5806 10.1936 51.2888 9.48387 52.1613 9.48387H93.2581C94.1306 9.48387 94.8387 10.1936 94.8387 11.0645ZM47.4194 45.8387V63.2258C47.4194 64.9693 46.0015 66.3871 44.2581 66.3871V22.129C46.0015 22.129 47.4194 23.5469 47.4194 25.2903V45.8387ZM7.90323 3.16129H49C51.058 3.16129 52.7967 4.48745 53.4511 6.32258H52.1613C49.5469 6.32258 47.4194 8.45013 47.4194 11.0645V12.6436L3.16129 12.6452V7.90323C3.16129 5.28884 5.28884 3.16129 7.90323 3.16129ZM49 94.8387H7.90323C5.28884 94.8387 3.16129 92.7112 3.16129 90.0968V79.0323H53.7419V90.0968C53.7419 92.7112 51.6144 94.8387 49 94.8387ZM53.7419 75.871H3.16129V15.8065L47.4194 15.8049V19.8466C46.4852 19.3028 45.4151 18.9677 44.2581 18.9677C42.5146 18.9677 41.0968 20.3856 41.0968 22.129V24.4605C33.3232 30.0844 23.8219 33.1936 14.2258 33.1936C9.86797 33.1936 6.32258 36.7389 6.32258 41.0968V47.4194C6.32258 51.235 9.04287 54.4279 12.6452 55.1629V69.5484C12.6452 71.2918 14.063 72.7097 15.8065 72.7097H19.2617C20.7539 72.7097 22.0579 71.6491 22.3645 70.1585L23.3588 64.8064H25.5748C28.0327 64.8064 30.0323 62.8069 30.0323 60.3506C30.0323 60.0566 30.0022 59.7626 29.9453 59.4749L29.6592 58.046C33.7262 59.5002 37.5862 61.5155 41.0968 64.0541V66.3871C41.0968 68.1305 42.5146 69.5484 44.2581 69.5484C47.745 69.5484 50.5806 66.7127 50.5806 63.2258V50.2898C51.077 50.4668 51.6049 50.5806 52.1613 50.5806H53.7419V75.871ZM41.0968 60.2226C34.477 55.8885 26.8362 53.1982 18.9677 52.4221V36.094C26.8362 35.3164 34.477 32.6277 41.0968 28.2935V60.2226ZM26.8457 60.0961C26.8631 60.1783 26.871 60.2637 26.871 60.3506C26.871 61.0651 26.2909 61.6452 25.5764 61.6452H23.9484L24.8857 56.6045C25.3346 56.712 25.7756 56.8447 26.2197 56.9665L26.8457 60.0961ZM9.48387 45.8387V42.6774H12.6452V39.5161H9.77471C10.4291 37.681 12.1678 36.3548 14.2258 36.3548C14.7537 36.3548 15.2785 36.3074 15.8065 36.29V52.2261C15.2785 52.2087 14.7537 52.1613 14.2258 52.1613C12.1678 52.1613 10.4291 50.8351 9.77471 49H12.6452V45.8387H9.48387ZM15.8065 55.3874C17.8123 55.4585 19.8118 55.634 21.7876 55.9675L19.2617 69.5484H15.8065V55.3874ZM93.2581 47.4194H52.1613C51.2888 47.4194 50.5806 46.7096 50.5806 45.8387V25.2903V22.129H94.8387V45.8387C94.8387 46.7096 94.1306 47.4194 93.2581 47.4194Z" fill="black"/>
<path d="M56.9032 12.6451H53.7419V15.8064H56.9032V12.6451Z" fill="black"/>
<path d="M69.5484 12.6451H66.3871V15.8064H69.5484V12.6451Z" fill="black"/>
<path d="M63.2258 12.6451H60.0645V15.8064H63.2258V12.6451Z" fill="black"/>
<path d="M79.0323 41.0968H75.871V25.2903H66.3871V41.0968H63.2258V31.6129H53.7419V44.2581H88.5161V28.4516H79.0323V41.0968ZM60.0645 41.0968H56.9032V34.7742H60.0645V41.0968ZM69.5484 28.4516H72.7097V41.0968H69.5484V28.4516ZM82.1936 31.6129H85.3548V41.0968H82.1936V31.6129Z" fill="black"/>
<path d="M66.3871 63.2258H94.8387V53.7419H66.3871V63.2258ZM69.5484 56.9032H91.6774V60.0645H69.5484V56.9032Z" fill="black"/>
<path d="M72.7097 66.3871H66.3871V69.5484H72.7097V66.3871Z" fill="black"/>
<path d="M94.8387 66.3871H75.871V69.5484H94.8387V66.3871Z" fill="black"/>
<path d="M94.8387 72.7097H66.3871V75.8709H94.8387V72.7097Z" fill="black"/>
<path d="M69.5484 79.0322H66.3871V82.1935H69.5484V79.0322Z" fill="black"/>
<path d="M94.8387 79.0322H72.7097V82.1935H94.8387V79.0322Z" fill="black"/>
<path d="M94.8387 85.3549H66.3871V88.5161H94.8387V85.3549Z" fill="black"/>
<path d="M28.4516 18.9677H6.32259V22.129H28.4516V18.9677Z" fill="black"/>
<path d="M28.4516 25.2903H6.32259V28.4516H28.4516V25.2903Z" fill="black"/>
</svg>
