<svg width="97" height="97" viewBox="0 0 97 97" fill="none" xmlns="http://www.w3.org/2000/svg">
<g clip-path="url(#clip0)">
<path d="M16.6719 59.2877C15.7322 59.2877 15.1563 58.7966 15.1563 58.5299H12.125C12.1685 59.3745 12.489 60.1813 13.0369 60.8257C13.5847 61.47 14.3296 61.9159 15.1563 62.0946V63.8346H18.1875V62.0946C19.0142 61.9159 19.759 61.47 20.3069 60.8257C20.8548 60.1813 21.1752 59.3745 21.2188 58.5299C21.1704 57.982 21.0143 57.449 20.7593 56.9617C20.5043 56.4744 20.1556 56.0422 19.733 55.6901C19.3105 55.338 18.8225 55.0729 18.2972 54.9099C17.7719 54.747 17.2195 54.6896 16.6719 54.7408C15.7322 54.7408 15.1563 54.2497 15.1563 53.983C15.1563 53.7162 15.7322 53.2252 16.6719 53.2252C17.6116 53.2252 18.1875 53.7162 18.1875 53.983H21.2188C21.1752 53.1383 20.8548 52.3315 20.3069 51.6872C19.759 51.0429 19.0142 50.5969 18.1875 50.4182V48.6783H15.1563V50.4182C14.3296 50.5969 13.5847 51.0429 13.0369 51.6872C12.489 52.3315 12.1685 53.1383 12.125 53.983C12.1733 54.5309 12.3295 55.0638 12.5844 55.5512C12.8394 56.0385 13.1882 56.4707 13.6107 56.8228C14.0333 57.1749 14.5212 57.44 15.0466 57.6029C15.5719 57.7658 16.1243 57.8233 16.6719 57.7721C17.6116 57.7721 18.1875 58.2631 18.1875 58.5299C18.1875 58.7966 17.6116 59.2877 16.6719 59.2877Z" fill="white"/>
<path d="M16.6719 69.8971C19.3697 69.8971 22.007 69.097 24.2502 67.5982C26.4934 66.0993 28.2417 63.969 29.2742 61.4765C30.3066 58.984 30.5767 56.2413 30.0504 53.5953C29.5241 50.9493 28.2249 48.5187 26.3173 46.6111C24.4096 44.7034 21.979 43.4042 19.333 42.8779C16.687 42.3516 13.9443 42.6217 11.4518 43.6541C8.95934 44.6866 6.82896 46.4349 5.33011 48.6781C3.83126 50.9213 3.03125 53.5586 3.03125 56.2564C3.03526 59.8729 4.47368 63.3401 7.03093 65.8974C9.58817 68.4546 13.0554 69.893 16.6719 69.8971ZM16.6719 45.6471C18.7702 45.6471 20.8214 46.2693 22.5661 47.4351C24.3108 48.6008 25.6707 50.2578 26.4737 52.1964C27.2767 54.135 27.4868 56.2682 27.0774 58.3262C26.668 60.3842 25.6576 62.2746 24.1738 63.7584C22.6901 65.2421 20.7997 66.2526 18.7417 66.662C16.6836 67.0713 14.5505 66.8612 12.6118 66.0582C10.6732 65.2552 9.01628 63.8954 7.8505 62.1507C6.68473 60.406 6.0625 58.3548 6.0625 56.2564C6.06571 53.4436 7.18451 50.747 9.17346 48.758C11.1624 46.7691 13.8591 45.6503 16.6719 45.6471Z" fill="white"/>
<path d="M48.5 32.0064C49.4397 32.0064 50.0156 32.4975 50.0156 32.7643H53.0469C53.0034 31.9196 52.6829 31.1128 52.135 30.4685C51.5871 29.8241 50.8423 29.3782 50.0156 29.1995V27.4596H46.9844V29.1995C46.1577 29.3782 45.4129 29.8241 44.865 30.4685C44.3171 31.1128 43.9966 31.9196 43.9531 32.7643C44.0015 33.3121 44.1576 33.8451 44.4126 34.3324C44.6675 34.8198 45.0163 35.2519 45.4389 35.604C45.8614 35.9561 46.3494 36.2213 46.8747 36.3842C47.4 36.5471 47.9524 36.6046 48.5 36.5533C49.4397 36.5533 50.0156 37.0444 50.0156 37.3111C50.0156 37.5779 49.4397 38.0689 48.5 38.0689C47.5603 38.0689 46.9844 37.5779 46.9844 37.3111H43.9531C43.9966 38.1558 44.3171 38.9626 44.865 39.6069C45.4129 40.2512 46.1577 40.6972 46.9844 40.8759V42.6158H50.0156V40.8759C50.8423 40.6972 51.5871 40.2512 52.135 39.6069C52.6829 38.9626 53.0034 38.1558 53.0469 37.3111C52.9985 36.7632 52.8424 36.2303 52.5874 35.743C52.3325 35.2556 51.9837 34.8235 51.5611 34.4714C51.1386 34.1192 50.6507 33.8541 50.1253 33.6912C49.6 33.5283 49.0476 33.4708 48.5 33.5221C47.5603 33.5221 46.9844 33.031 46.9844 32.7643C46.9844 32.4975 47.5603 32.0064 48.5 32.0064Z" fill="white"/>
<path d="M48.5 21.3971C45.8021 21.3971 43.1649 22.1971 40.9217 23.6959C38.6785 25.1948 36.9301 27.3251 35.8977 29.8176C34.8653 32.3101 34.5952 35.0528 35.1215 37.6988C35.6478 40.3449 36.947 42.7754 38.8546 44.6831C40.7623 46.5907 43.1928 47.8899 45.8389 48.4162C48.4849 48.9425 51.2275 48.6724 53.72 47.64C56.2125 46.6076 58.3429 44.8592 59.8418 42.616C61.3406 40.3728 62.1406 37.7355 62.1406 35.0377C62.1366 31.4212 60.6982 27.954 58.141 25.3967C55.5837 22.8395 52.1165 21.4011 48.5 21.3971ZM48.5 45.6471C46.4017 45.6471 44.3505 45.0248 42.6058 43.8591C40.8611 42.6933 39.5012 41.0363 38.6982 39.0977C37.8952 37.1591 37.6851 35.0259 38.0945 32.9679C38.5039 30.9099 39.5143 29.0195 40.998 27.5357C42.4818 26.052 44.3722 25.0415 46.4302 24.6322C48.4882 24.2228 50.6214 24.4329 52.56 25.2359C54.4986 26.0389 56.1556 27.3987 57.3214 29.1434C58.4872 30.8881 59.1094 32.9394 59.1094 35.0377C59.1062 37.8505 57.9874 40.5472 55.9984 42.5361C54.0095 44.5251 51.3128 45.6439 48.5 45.6471Z" fill="white"/>
<path d="M80.3281 10.7877C81.2678 10.7877 81.8438 11.2788 81.8438 11.5455H84.875C84.8315 10.7009 84.511 9.89403 83.9631 9.24972C83.4153 8.6054 82.6704 8.15944 81.8438 7.98075V6.24081H78.8125V7.98075C77.9858 8.15944 77.241 8.6054 76.6931 9.24972C76.1452 9.89403 75.8248 10.7009 75.7812 11.5455C75.8296 12.0934 75.9857 12.6263 76.2407 13.1137C76.4957 13.601 76.8444 14.0332 77.267 14.3853C77.6895 14.7374 78.1775 15.0025 78.7028 15.1654C79.2281 15.3283 79.7805 15.3858 80.3281 15.3346C81.2678 15.3346 81.8438 15.8256 81.8438 16.0924C81.8438 16.3591 81.2678 16.8502 80.3281 16.8502C79.3884 16.8502 78.8125 16.3591 78.8125 16.0924H75.7812C75.8248 16.937 76.1452 17.7438 76.6931 18.3882C77.241 19.0325 77.9858 19.4784 78.8125 19.6571V21.3971H81.8438V19.6571C82.6704 19.4784 83.4153 19.0325 83.9631 18.3882C84.511 17.7438 84.8315 16.937 84.875 16.0924C84.8267 15.5445 84.6705 15.0116 84.4155 14.5242C84.1606 14.0369 83.8118 13.6047 83.3893 13.2526C82.9667 12.9005 82.4788 12.6354 81.9534 12.4724C81.4281 12.3095 80.8757 12.2521 80.3281 12.3033C79.3884 12.3033 78.8125 11.8123 78.8125 11.5455C78.8125 11.2788 79.3884 10.7877 80.3281 10.7877Z" fill="white"/>
<path d="M80.3281 0.178314C77.6303 0.178314 74.993 0.978323 72.7498 2.47717C70.5066 3.97603 68.7583 6.1064 67.7258 8.5989C66.6934 11.0914 66.4233 13.8341 66.9496 16.4801C67.4759 19.1261 68.7751 21.5566 70.6828 23.4643C72.5904 25.372 75.021 26.6711 77.667 27.1975C80.313 27.7238 83.0557 27.4537 85.5482 26.4212C88.0407 25.3888 90.171 23.6405 91.6699 21.3973C93.1687 19.1541 93.9688 16.5168 93.9688 13.8189C93.9647 10.2025 92.5263 6.73524 89.9691 4.17799C87.4118 1.62075 83.9446 0.182326 80.3281 0.178314ZM80.3281 24.4283C78.2298 24.4283 76.1786 23.8061 74.4339 22.6403C72.6892 21.4745 71.3293 19.8176 70.5263 17.879C69.7234 15.9404 69.5132 13.8072 69.9226 11.7492C70.332 9.69114 71.3424 7.80073 72.8262 6.31698C74.3099 4.83323 76.2003 3.82279 78.2583 3.41342C80.3164 3.00406 82.4496 3.21416 84.3882 4.01715C86.3268 4.82015 87.9837 6.17998 89.1495 7.92469C90.3153 9.66939 90.9375 11.7206 90.9375 13.8189C90.9343 16.6317 89.8155 19.3284 87.8266 21.3174C85.8376 23.3063 83.1409 24.4251 80.3281 24.4283Z" fill="white"/>
<path d="M13.6406 91.1158H19.7031C20.1051 91.1158 20.4906 90.9561 20.7748 90.6719C21.0591 90.3877 21.2187 90.0022 21.2187 89.6002V82.022H24.25C24.5641 82.0222 24.8706 81.9247 25.1269 81.7431C25.3832 81.5615 25.5768 81.3047 25.6808 81.0083C25.7848 80.7119 25.7942 80.3904 25.7076 80.0885C25.6209 79.7865 25.4426 79.5189 25.1973 79.3227L17.6191 73.2602C17.3503 73.045 17.0162 72.9277 16.6719 72.9277C16.3275 72.9277 15.9934 73.045 15.7246 73.2602L8.14646 79.3227C7.90111 79.5189 7.72279 79.7865 7.63616 80.0885C7.54953 80.3904 7.55887 80.7119 7.6629 81.0083C7.76692 81.3047 7.96048 81.5615 8.21682 81.7431C8.47315 81.9247 8.77958 82.0222 9.09373 82.022H12.125V89.6002C12.125 90.0022 12.2847 90.3877 12.5689 90.6719C12.8531 90.9561 13.2386 91.1158 13.6406 91.1158ZM16.6719 76.3854L19.9289 78.9908H19.7031C19.3011 78.9908 18.9156 79.1505 18.6314 79.4347C18.3472 79.7189 18.1875 80.1044 18.1875 80.5064V88.0846H15.1562V80.5064C15.1562 80.1044 14.9965 79.7189 14.7123 79.4347C14.4281 79.1505 14.0426 78.9908 13.6406 78.9908H13.4148L16.6719 76.3854Z" fill="white"/>
<path d="M44.2562 91.1158H52.7437C53.1457 91.1158 53.5312 90.9561 53.8155 90.6719C54.0997 90.3877 54.2594 90.0022 54.2594 89.6002V71.1096H59.1094C59.3946 71.1095 59.6739 71.029 59.9154 70.8772C60.1569 70.7255 60.3506 70.5087 60.4744 70.2518C60.5982 69.9949 60.647 69.7083 60.6152 69.4249C60.5834 69.1415 60.4723 68.8728 60.2946 68.6497L49.6852 55.3122C49.538 55.1424 49.3559 55.0061 49.1514 54.9128C48.9469 54.8194 48.7248 54.7711 48.5 54.7711C48.2752 54.7711 48.053 54.8194 47.8486 54.9128C47.6441 55.0061 47.462 55.1424 47.3148 55.3122L36.7054 68.6497C36.5277 68.8728 36.4166 69.1415 36.3848 69.4249C36.353 69.7083 36.4018 69.9949 36.5256 70.2518C36.6494 70.5087 36.8431 70.7255 37.0846 70.8772C37.3261 71.029 37.6054 71.1095 37.8906 71.1096H42.7406V89.6002C42.7406 90.0022 42.9003 90.3877 43.1845 90.6719C43.4688 90.9561 43.8543 91.1158 44.2562 91.1158ZM41.0325 68.0783L48.5 58.6905L55.9675 68.0783H52.7437C52.3418 68.0783 51.9563 68.238 51.672 68.5222C51.3878 68.8065 51.2281 69.192 51.2281 69.5939V88.0846H45.7719V69.5939C45.7719 69.192 45.6122 68.8065 45.328 68.5222C45.0437 68.238 44.6582 68.0783 44.2562 68.0783H41.0325Z" fill="white"/>
<path d="M81.6346 37.3005C81.4903 37.0867 81.2957 36.9116 81.0679 36.7905C80.8401 36.6695 80.5861 36.6061 80.3281 36.6061C80.0701 36.6061 79.8161 36.6695 79.5883 36.7905C79.3606 36.9116 79.166 37.0867 79.0216 37.3005L66.8966 57.913C66.7612 58.1432 66.6891 58.4052 66.6874 58.6722C66.6858 58.9393 66.7548 59.2021 66.8874 59.434C67.02 59.6658 67.2116 59.8585 67.4426 59.9925C67.6737 60.1265 67.936 60.1971 68.2031 60.1971H73.9625V89.6002C73.9625 90.0021 74.1222 90.3877 74.4064 90.6719C74.6906 90.9561 75.0761 91.1158 75.4781 91.1158H85.1781C85.5801 91.1158 85.9656 90.9561 86.2498 90.6719C86.5341 90.3877 86.6937 90.0021 86.6937 89.6002V60.1971H92.4531C92.7202 60.1971 92.9826 60.1265 93.2136 59.9925C93.4447 59.8585 93.6362 59.6658 93.7688 59.434C93.9014 59.2021 93.9704 58.9393 93.9688 58.6722C93.9672 58.4052 93.895 58.1432 93.7596 57.913L81.6346 37.3005ZM85.1781 57.1658C84.7761 57.1658 84.3906 57.3255 84.1064 57.6097C83.8222 57.894 83.6625 58.2795 83.6625 58.6814V88.0846H76.9937V58.6814C76.9937 58.2795 76.8341 57.894 76.5498 57.6097C76.2656 57.3255 75.8801 57.1658 75.4781 57.1658H70.8524L80.3281 41.0578L89.8038 57.1658H85.1781Z" fill="white"/>
</g>
<defs>
<clipPath id="clip0">
<rect width="91.2941" height="91.2941" fill="white" transform="translate(2.85294)"/>
</clipPath>
</defs>
</svg>
