<svg width="567" height="348" viewBox="0 0 567 348" fill="none" xmlns="http://www.w3.org/2000/svg">
<path d="M115.711 282.651L467.574 282.651L467.574 26.8011L115.711 26.8011L115.711 282.651Z" fill="#E6E6E6"/>
<path opacity="0.05" d="M458.309 95.3248C458.309 95.3248 451.014 93.261 448.478 104.329C445.943 115.396 447.129 117.789 452.509 120.565C457.89 123.341 455.136 141.312 445.341 140.928C435.547 140.545 427.577 132.618 422.78 140.928C417.983 149.238 413.132 210.328 393.087 197.069C373.043 183.81 368.556 133.312 368.556 133.312L332.735 132.783V172.396L360.604 171.829C360.604 171.829 364.252 220.483 403.374 231.349C405.322 231.869 407.143 232.78 408.729 234.026C410.315 235.273 411.631 236.829 412.598 238.6C413.565 240.371 414.163 242.32 414.355 244.329C414.547 246.338 414.329 248.366 413.715 250.288L403.191 282.633H463.763V239.97C463.763 239.97 466.644 107.543 458.309 95.3248Z" fill="black"/>
<path opacity="0.45" d="M461.1 347.12C519.181 347.12 566.265 340.096 566.265 331.432C566.265 322.768 519.181 315.744 461.1 315.744C403.019 315.744 355.935 322.768 355.935 331.432C355.935 340.096 403.019 347.12 461.1 347.12Z" fill="#E6E6E6"/>
<path opacity="0.45" d="M92.639 347.12C143.357 347.12 184.471 340.096 184.471 331.432C184.471 322.768 143.357 315.744 92.639 315.744C41.9213 315.744 0.806522 322.768 0.806522 331.432C0.806522 340.096 41.9213 347.12 92.639 347.12Z" fill="#E6E6E6"/>
<path opacity="0.58" d="M537.995 315.744C537.995 315.744 548.719 312.858 551.09 302.959C551.09 302.959 534.511 299.526 533.964 316.675L537.995 315.744Z" fill="#0AB2FA"/>
<path opacity="0.73" d="M536.608 314.703C536.608 314.703 544.141 302.905 537.611 291.801C533.987 294.226 531.303 297.823 530.008 301.991C528.714 306.16 528.887 310.647 530.498 314.703H536.608Z" fill="#0AB2FA"/>
<path d="M534.784 314.703C534.784 314.703 530.881 302.192 518.953 299.763C518.953 299.763 516.673 307.872 526.613 314.703H534.784Z" fill="#0AB2FA"/>
<path d="M542.536 314.465L540.293 329.313H526.632L524.68 314.465H542.536Z" fill="#24285B"/>
<path d="M456.54 133.331C456.54 133.331 433.76 130.281 429.182 149.347C424.604 168.414 423.965 194.805 405.654 200.083C387.342 205.361 377.238 168.725 377.238 168.725C377.238 168.725 372.988 158.443 368.41 157.036C363.832 155.63 360.567 165.784 368.41 171.994C368.41 171.994 375.031 218.784 410.104 217.141C445.177 215.497 456.54 167.264 456.54 133.331Z" fill="#F4A28C"/>
<path opacity="0.08" d="M456.54 133.331C456.54 133.331 433.76 130.281 429.182 149.347C424.604 168.414 423.965 194.805 405.654 200.083C387.342 205.361 377.238 168.725 377.238 168.725C377.238 168.725 372.988 158.443 368.41 157.036C363.832 155.63 360.567 165.784 368.41 171.994C368.41 171.994 375.031 218.784 410.104 217.141C445.177 215.497 456.54 167.264 456.54 133.331Z" fill="black"/>
<path d="M456.54 133.331C456.54 133.331 432.082 128.491 428.653 148.288C426.787 159.631 423.61 170.718 419.187 181.326L437.863 187.39L456.54 133.331Z" fill="#0AB2FA"/>
<path opacity="0.46" d="M456.54 133.331C456.54 133.331 432.082 128.491 428.653 148.288C426.787 159.631 423.61 170.718 419.187 181.326L437.863 187.39L456.54 133.331Z" fill="white"/>
<path d="M457.707 101.169C455.979 104.873 454.753 108.792 454.06 112.821C454.004 113.307 454.047 113.799 454.185 114.268C454.323 114.737 454.553 115.173 454.863 115.551C455.172 115.929 455.555 116.241 455.987 116.469C456.419 116.696 456.892 116.835 457.379 116.875C458.926 117.129 460.514 116.93 461.95 116.301C463.387 115.673 464.612 114.642 465.477 113.332L469.763 108.073C470.512 106.927 470.886 105.577 470.834 104.209C470.782 102.841 470.305 101.523 469.471 100.439C466.59 96.2014 459.403 97.005 457.707 101.169Z" fill="#F4A28C"/>
<path d="M468.103 109.278L469.836 133.331H456.54L460.516 116.273L468.103 109.278Z" fill="#F4A28C"/>
<path d="M455.938 105.461L453.038 107.397C452.872 107.505 452.736 107.652 452.642 107.826C452.548 108 452.499 108.194 452.499 108.392C452.499 108.59 452.548 108.785 452.642 108.958C452.736 109.132 452.872 109.28 453.038 109.387L455.482 110.867L455.938 105.461Z" fill="#F4A28C"/>
<path opacity="0.31" d="M460.407 116.675C462.008 116.392 463.502 115.679 464.729 114.611C464.729 114.611 465.605 119.816 459.258 121.569L460.407 116.675Z" fill="#CE8172"/>
<path d="M463.763 108.986C463.763 108.986 464.802 106.338 466.717 107.287C468.632 108.237 467.173 112.054 464.328 111.396L463.763 108.986Z" fill="#F4A28C"/>
<path d="M432.501 270.268L421.248 321.478H427.796L449.682 270.268H432.501Z" fill="#F4A28C"/>
<path d="M469.106 264.059L481.108 321.478H487.692L486.689 263.639L469.106 264.059Z" fill="#F4A28C"/>
<path d="M421.248 321.478C421.248 321.478 417.6 326.081 412.967 325.862C408.335 325.642 407.642 332.199 415.12 331.523C417.448 331.329 419.755 330.931 422.014 330.336C424.095 329.861 426.263 329.936 428.306 330.555C428.705 330.653 429.124 330.625 429.506 330.474C429.888 330.324 430.215 330.059 430.44 329.715C432.556 327.213 427.358 321.478 427.358 321.478H421.248Z" fill="#0AB2FA"/>
<path d="M487.199 321.478C487.199 321.478 490.847 326.081 495.48 325.862C500.113 325.642 500.806 332.199 493.346 331.523C491.018 331.33 488.711 330.933 486.452 330.336C484.365 329.861 482.19 329.937 480.141 330.555C479.745 330.654 479.328 330.627 478.948 330.476C478.569 330.325 478.246 330.059 478.025 329.715C475.891 327.213 481.108 321.478 481.108 321.478H487.199Z" fill="#0AB2FA"/>
<path d="M456.54 133.331H469.836C469.836 133.331 470.748 133.331 472.317 133.331C501.334 134.262 518.187 166.533 502.775 191.17C494.203 204.868 483.971 223.332 483.296 234.363L431.589 231.733C431.589 231.733 435.492 198.147 425.917 178.952C425.917 178.97 408.298 148.745 456.54 133.331Z" fill="#0AB2FA"/>
<path opacity="0.08" d="M479.63 150.918C479.63 150.918 473.21 164.232 471.678 188.175C470.146 212.118 433.869 183.828 433.869 183.828L432.191 223.387L484.993 226.254L489.388 210.219C489.388 210.219 503.231 185.326 479.63 150.918Z" fill="black"/>
<path d="M431.249 218.991L465.722 214.948L459.484 161.619L425.011 165.662L431.249 218.991Z" fill="#FFD200"/>
<path d="M434.824 169.038L450.874 167.156L449.96 159.338L433.91 161.22L434.824 169.038Z" fill="#24285B"/>
<path d="M432.191 223.387L484.993 226.181L499.109 279.729L422.78 277.007L432.191 223.387Z" fill="#24285B"/>
<path opacity="0.08" d="M427.103 183.901L463.763 198.549L465.696 215.004L431.225 219.058L427.103 183.901Z" fill="black"/>
<path d="M480.068 153.475C479.981 151.119 480.633 148.795 481.934 146.83C483.235 144.865 485.118 143.358 487.319 142.521C489.52 141.684 491.928 141.56 494.203 142.165C496.479 142.771 498.507 144.075 500.003 145.896C507.5 154.904 511.468 166.335 511.165 178.057C510.728 209.397 506.514 243.33 438.994 206.256L442.642 196.32C442.642 196.32 472.608 210.748 485.12 206.073C494.313 202.603 481.016 175.007 480.068 153.475Z" fill="#F4A28C"/>
<path d="M442.624 196.302C442.624 196.302 431.37 190.951 426.574 196.302C421.777 201.653 429.401 206.457 438.994 206.237L442.624 196.302Z" fill="#F4A28C"/>
<path d="M456.54 97.6259L454.224 103.415L463.763 107.068C463.763 107.068 464.31 113.497 460.936 114.666C461.718 114.625 462.484 114.429 463.189 114.087C463.894 113.745 464.523 113.265 465.039 112.675C465.441 112.233 465.999 111.965 466.595 111.927C467.19 111.89 467.777 112.086 468.231 112.474L468.34 112.584C471.079 109.889 473.006 106.478 473.903 102.74C474.998 97.078 468.669 96.2014 468.669 96.2014C468.669 96.2014 460.297 90.3206 456.54 97.6259Z" fill="#24285B"/>
<path d="M468.669 96.2197C468.669 96.2197 469.107 90.7407 478.919 91.6356C488.732 92.5305 478.919 105.753 486.981 118.117C486.981 118.117 472.152 114.976 471.733 101.68L468.669 96.2197Z" fill="#24285B"/>
<path d="M468.067 95.8361C468.81 95.4311 469.655 95.2533 470.498 95.3247C471.341 95.3962 472.144 95.7137 472.809 96.2379C475.581 98.0643 476.803 104.402 472.426 106.611C472.426 106.611 476.055 97.9181 468.067 95.8361Z" fill="#FFD200"/>
<path d="M484.354 187.39H513.117C513.117 187.39 516.272 145.384 492.47 139.905C468.669 134.426 484.354 187.39 484.354 187.39Z" fill="#0AB2FA"/>
<path opacity="0.46" d="M484.354 187.39H513.117C513.117 187.39 516.272 145.384 492.47 139.905C468.669 134.426 484.354 187.39 484.354 187.39Z" fill="white"/>
<path d="M346.979 165.693H390.114V129.66H346.979V165.693Z" fill="#24285B"/>
<path opacity="0.62" d="M385.627 160.104L375.341 141.732L368.136 155.338L359.418 143.795L350.682 160.104H385.627Z" fill="white"/>
<path d="M366.55 143.101C368.443 143.101 369.979 141.564 369.979 139.668C369.979 137.772 368.443 136.234 366.55 136.234C364.656 136.234 363.121 137.772 363.121 139.668C363.121 141.564 364.656 143.101 366.55 143.101Z" fill="white"/>
<path opacity="0.05" d="M141.756 150.37L118.885 150.991L111.352 282.651H144.182C146.006 276.387 150.748 243.805 168.585 224.939C186.131 206.365 257.773 158.223 231.528 125.715C218.76 109.881 197.312 170.332 197.312 170.332L163.533 174.35L165.85 173.144L141.756 150.37Z" fill="black"/>
<path d="M91.344 117.496L95.1377 128.874L86.146 134.591L82.9177 114.885L91.344 117.496Z" fill="#F4A28C"/>
<path d="M79.8353 103.89C80.3003 102.797 81.0331 101.838 81.9661 101.103C82.899 100.369 84.0019 99.8813 85.1728 99.6865C86.3438 99.4917 87.5448 99.5957 88.6649 99.9889C89.785 100.382 90.788 101.052 91.5812 101.936C95.3931 106.027 100.007 112.529 94.7912 116.054C86.8208 121.533 79.4888 111.36 79.4888 111.36C78.8583 108.891 78.9789 106.29 79.8353 103.89Z" fill="#F4A28C"/>
<path d="M85.6718 110.867C85.6718 110.867 83.6108 109.15 82.6988 111.597C81.7869 114.045 85.3799 115.25 86.456 113.972C87.5321 112.693 85.6718 110.867 85.6718 110.867Z" fill="#F4A28C"/>
<path d="M67.6153 140.417C67.6153 140.417 30.6635 162.734 25.7937 215.296C25.3738 219.663 26.538 224.036 29.0732 227.614C31.6085 231.192 35.3454 233.737 39.6005 234.783L82.9177 245.248L67.6153 140.417Z" fill="#0AB2FA"/>
<path opacity="0.2" d="M67.6153 140.417C67.6153 140.417 30.6635 162.734 25.7937 215.296C25.3738 219.663 26.538 224.036 29.0732 227.614C31.6085 231.192 35.3454 233.737 39.6005 234.783L82.9177 245.248L67.6153 140.417Z" fill="white"/>
<path d="M83.1298 204.133L26.3515 230.259L43.4105 267.432L100.189 241.306L83.1298 204.133Z" fill="#FFD200"/>
<path d="M86.8026 107.926C86.8026 107.926 91.034 120.09 83.6473 119.323C76.2605 118.556 80.2913 113.332 76.6253 107.926C72.9593 102.521 74.8014 98.7948 80.4919 94.1012C83.0636 91.9278 84.7781 90.9051 85.8177 89.7545C86.2525 89.2424 86.8098 88.8488 87.4376 88.6105C88.0653 88.3722 88.7431 88.297 89.4077 88.3918C90.0723 88.4866 90.7022 88.7484 91.2385 89.1527C91.7748 89.5571 92.2001 90.0908 92.4749 90.7042C94.3899 95.3796 94.4082 101.626 86.8026 107.926Z" fill="#24285B"/>
<path d="M59.0613 151.375C60.8148 147.474 63.3876 143.998 66.6044 141.184C69.8211 138.369 73.6062 136.282 77.7014 135.066C93.5144 130.317 123.517 120.345 132.418 135.066C144.547 155.32 125.87 234.856 125.87 234.856L72.7404 239.038C72.7404 239.038 43.5401 186.276 59.0613 151.375Z" fill="#0AB2FA"/>
<path d="M125.834 234.892L118.848 326.3H107.814L97.9465 255.274L73.543 239.02L125.834 234.892Z" fill="#24285B"/>
<path d="M73.5429 239.02L58.3135 326.3H70.1505L95.7031 253.795L73.5429 239.02Z" fill="#24285B"/>
<path opacity="0.08" d="M82.2976 133.641C82.2976 133.641 57.4563 213.744 129.171 219.04L125.834 234.892L72.7404 239.038C60.5401 217.497 54.3536 193.065 54.8299 168.305C54.8299 168.305 55.2859 147.886 69.6398 138.846C73.4424 136.231 77.7573 134.457 82.2976 133.641Z" fill="black"/>
<path d="M60.4657 326.3L53.1702 331.779C52.9008 331.983 52.7015 332.266 52.6002 332.588C52.4989 332.911 52.5005 333.257 52.6049 333.578C52.7092 333.9 52.9111 334.181 53.1825 334.382C53.4538 334.583 53.781 334.695 54.1186 334.701H66.4298C66.8572 334.701 67.2673 334.532 67.5712 334.231C67.8751 333.931 68.0483 333.522 68.0531 333.094V326.373L60.4657 326.3Z" fill="#0AB2FA"/>
<path d="M118.538 326.3L125.451 331.779C125.724 331.985 125.925 332.273 126.025 332.601C126.125 332.929 126.118 333.28 126.007 333.604C125.896 333.928 125.685 334.209 125.405 334.406C125.125 334.603 124.79 334.706 124.448 334.701H115.675C114.436 334.701 113.249 334.208 112.373 333.332C111.497 332.455 111.006 331.266 111.006 330.026V326.373L118.538 326.3Z" fill="#0AB2FA"/>
<path d="M227.132 126.865L219.253 124.546L184.253 155.027C181.68 157.259 178.565 158.772 175.222 159.414C171.879 160.055 168.426 159.802 165.211 158.68C155.695 155.439 147.602 148.981 142.322 140.417C129.773 120.035 108.452 127.395 108.452 127.395C108.452 127.395 92.3836 143.248 124.21 170.441C143.215 186.677 162.676 187.7 175.279 185.892C176.817 185.706 178.363 185.603 179.912 185.582C181.4 185.531 182.866 185.203 184.234 184.614C185.928 183.888 187.578 183.065 189.177 182.148C202.09 174.679 216.006 158.863 227.132 126.865Z" fill="#0AB2FA"/>
<path opacity="0.2" d="M227.132 126.865L219.253 124.546L184.253 155.027C181.68 157.259 178.565 158.772 175.222 159.414C171.879 160.055 168.426 159.802 165.211 158.68C155.695 155.439 147.602 148.981 142.322 140.417C129.773 120.035 108.452 127.395 108.452 127.395C108.452 127.395 92.3836 143.248 124.21 170.441C143.215 186.677 162.676 187.7 175.279 185.892C176.817 185.706 178.363 185.603 179.912 185.582C181.4 185.531 182.866 185.203 184.234 184.614C185.928 183.888 187.578 183.065 189.177 182.148C202.09 174.679 216.006 158.863 227.132 126.865Z" fill="white"/>
<path d="M219.253 124.546C219.253 124.546 223.685 111.762 227.205 110.867C230.725 109.972 227.205 117.697 227.205 117.697C227.205 117.697 236.872 122.446 227.205 126.829L219.253 124.546Z" fill="#F4A28C"/>
<path opacity="0.55" d="M257.682 158.223L250.204 167.611C242.251 177.604 238.496 190.305 239.735 203.023L241.176 217.634L263.063 197.727L257.682 158.223Z" fill="#878787"/>
<path opacity="0.55" d="M310.192 158.223L317.67 167.611C325.629 177.6 329.385 190.304 328.139 203.023L326.716 217.634L304.829 197.727L310.192 158.223Z" fill="#878787"/>
<path opacity="0.55" d="M273.969 200.832C273.969 200.832 280.791 241.011 269.574 244.389C258.357 247.768 253.159 229.633 238.349 240.426C223.539 251.22 242.526 263.109 216.371 259.803C190.217 256.498 180.076 269.41 186.241 282.651H379.262C379.262 282.651 388.947 270.36 378.168 261.995C375.825 260.23 373.13 258.991 370.266 258.36C367.402 257.73 364.437 257.724 361.57 258.342C360.779 258.476 359.969 258.435 359.196 258.22C358.423 258.005 357.706 257.623 357.097 257.1C356.488 256.577 356.001 255.927 355.671 255.195C355.341 254.463 355.176 253.667 355.187 252.863C355.296 248.9 354.621 244.408 351.539 241.668C347.891 238.326 340.14 241.814 334.376 245.321C327.833 249.359 320.13 251.095 312.49 250.252C305.796 249.448 298.938 247.22 297.078 241.705C293.12 230.034 295.528 200.046 295.528 200.046L273.969 200.832Z" fill="white"/>
<path d="M283.964 74.8699C283.964 74.8699 228.701 105.242 263.081 197.708H304.866C339.246 105.242 283.964 74.8699 283.964 74.8699Z" fill="#C1C1C1"/>
<path d="M304.866 197.708L303.006 204.795H265.087L263.081 196.868L304.866 197.708Z" fill="#878787"/>
<path d="M284.366 143.321C292.202 143.321 298.555 136.959 298.555 129.112C298.555 121.264 292.202 114.903 284.366 114.903C276.529 114.903 270.176 121.264 270.176 129.112C270.176 136.959 276.529 143.321 284.366 143.321Z" fill="#E6E6E6"/>
<path d="M140.881 61.8117C145.786 61.8117 149.763 57.8296 149.763 52.9175C149.763 48.0054 145.786 44.0233 140.881 44.0233C135.975 44.0233 131.998 48.0054 131.998 52.9175C131.998 57.8296 135.975 61.8117 140.881 61.8117Z" fill="#FFD200"/>
<path d="M165.868 61.8117C170.773 61.8117 174.75 57.8296 174.75 52.9175C174.75 48.0054 170.773 44.0233 165.868 44.0233C160.962 44.0233 156.986 48.0054 156.986 52.9175C156.986 57.8296 160.962 61.8117 165.868 61.8117Z" fill="#0AB2FA"/>
<path d="M189.815 61.8117C194.721 61.8117 198.698 57.8296 198.698 52.9175C198.698 48.0054 194.721 44.0233 189.815 44.0233C184.91 44.0233 180.933 48.0054 180.933 52.9175C180.933 57.8296 184.91 61.8117 189.815 61.8117Z" fill="#24285B"/>
<path d="M442.624 0.0820007H322.977V83.1615H442.624V0.0820007Z" fill="#F4F4F4"/>
<path d="M364.744 48.0047H351.284V65.2452H364.744V48.0047Z" fill="#C1C1C1"/>
<path d="M389.895 34.7456H376.435V65.2452H389.895V34.7456Z" fill="#C1C1C1"/>
<path d="M414.572 21.2126H401.112V65.2452H414.572V21.2126Z" fill="#C1C1C1"/>
</svg>
