<svg width="102" height="102" viewBox="0 0 102 102" fill="none" xmlns="http://www.w3.org/2000/svg">
<g clip-path="url(#clip0)">
<path d="M46.7192 33.5345C44.5611 33.5345 42.5694 32.6901 40.9528 31.0885C37.3947 27.5635 36.446 21.4712 36.446 18.4266C36.446 17.5411 36.5564 16.6616 36.787 15.74C37.0157 14.8194 37.9623 14.2608 38.8689 14.4894C39.7895 14.7201 40.3491 15.6517 40.1205 16.5723C39.958 17.2182 39.8798 17.8249 39.8798 18.4266C39.8798 21.7881 41.0792 26.3782 43.3697 28.6486C44.3565 29.6244 45.4496 30.0997 46.7172 30.0997C46.7312 30.0997 46.7473 30.0997 46.7633 30.0997C51.938 30.0516 53.6789 22.0629 53.6789 18.4266C53.6789 17.8249 53.6007 17.2182 53.4383 16.5723C53.2096 15.6517 53.7692 14.7201 54.6898 14.4894C55.5984 14.2658 56.5431 14.8204 56.7717 15.74C57.0024 16.6616 57.1127 17.5411 57.1127 18.4266C57.1127 24.6603 53.9116 33.4683 46.7954 33.5334C46.7693 33.5345 46.7433 33.5345 46.7192 33.5345Z" fill="white"/>
<path d="M44.8579 102H39.9099C37.8721 102 36.2134 100.367 36.2134 98.3613V45.0331C36.2134 44.0844 36.9816 43.3152 37.9303 43.3152C38.879 43.3152 39.6471 44.0844 39.6471 45.0331V98.3613C39.6471 98.4476 39.7394 98.5659 39.9099 98.5659H44.8579C44.9562 98.5659 45.0625 98.4596 45.0625 98.3613V72.4538C45.0625 71.5051 45.8307 70.737 46.7794 70.737C47.7281 70.737 48.4962 71.5051 48.4962 72.4538V98.3613C48.4962 100.367 46.8636 102 44.8579 102Z" fill="white"/>
<path d="M19.9974 48.3224C19.6544 48.3224 19.3075 48.2191 19.0066 48.0055C18.2324 47.4569 18.0499 46.3849 18.5975 45.6117L22.4424 40.1963C22.7071 39.8233 23.1082 39.5716 23.5575 39.4964C24.0068 39.4222 24.4721 39.5284 24.8412 39.7932L28.4414 42.3655C28.7743 41.9453 29.1173 41.494 29.4703 41.0297C31.7969 37.965 34.6951 34.1502 38.9672 33.8303C40.2729 33.717 41.2417 33.1243 41.9858 30.5299C42.2445 29.6183 43.1932 29.0878 44.1098 29.3516C45.0204 29.6123 45.5479 30.563 45.2872 31.4746C44.9061 32.8074 43.7448 36.8629 39.244 37.254C36.4942 37.4606 34.2157 40.4601 32.204 43.1076C31.4459 44.1054 30.7299 45.0491 29.9958 45.8464C29.4081 46.4832 28.4434 46.5834 27.7334 46.081L24.2455 43.5889L21.4014 47.5973C21.0664 48.0697 20.5349 48.3224 19.9974 48.3224Z" fill="white"/>
<path d="M28.3832 55.8307C26.5841 55.8307 25.0116 55.1287 23.8363 53.7969L18.6877 47.7136C18.076 46.9896 18.1662 45.9055 18.8903 45.2938C19.6143 44.6811 20.6954 44.7703 21.3111 45.4954L26.4337 51.5505C26.9351 52.1182 27.5629 52.3969 28.3832 52.3969C29.1534 52.3969 29.7671 52.1061 30.2585 51.5104L36.6145 43.9299C37.2263 43.2009 38.3113 43.1106 39.0334 43.7173C39.7614 44.326 39.8557 45.4101 39.246 46.1362L32.9 53.7047C31.7748 55.0725 30.1662 55.8307 28.3832 55.8307Z" fill="white"/>
<path d="M20.4647 47.6234C18.0057 47.6234 15.9459 45.7651 15.6731 43.3012C15.3963 40.8452 16.9969 38.5908 19.3937 38.0583C21.8246 37.5167 24.2575 38.8455 25.0557 41.1521C25.3666 42.0486 24.8913 43.0264 23.9947 43.3363C23.0962 43.6501 22.1194 43.1718 21.8105 42.2752C21.5819 41.6094 20.8819 41.2433 20.1398 41.4118C19.4478 41.5652 19.0066 42.199 19.0868 42.9201C19.169 43.6552 19.7487 44.1877 20.4647 44.1877C21.4134 44.1877 22.1816 44.9568 22.1816 45.9055C22.1816 46.8542 21.4134 47.6234 20.4647 47.6234Z" fill="white"/>
<path d="M63.2561 50.7081C62.3074 50.7081 61.5392 49.94 61.5392 48.9913V42.4126C61.5392 39.6999 59.331 37.4937 56.6193 37.4937C55.6706 37.4937 54.9024 36.7245 54.9024 35.7758C54.9024 34.8271 55.6706 34.0579 56.6193 34.0579C61.2264 34.0579 64.973 37.8056 64.973 42.4126V48.9913C64.973 49.94 64.2048 50.7081 63.2561 50.7081Z" fill="white"/>
<path d="M53.707 102H48.7008C46.6951 102 45.0625 100.367 45.0625 98.3613V72.4538C45.0625 71.5051 45.8307 70.737 46.7794 70.737C47.7281 70.737 48.4962 71.5051 48.4962 72.4538V98.3613C48.4962 98.4596 48.6025 98.5659 48.7008 98.5659H53.707C53.8053 98.5659 53.9116 98.4596 53.9116 98.3613V45.0331C53.9116 44.0844 54.6798 43.3152 55.6285 43.3152C56.5772 43.3152 57.3453 44.0844 57.3453 45.0331V98.3613C57.3453 100.367 55.7127 102 53.707 102Z" fill="white"/>
<path d="M61.2183 70.8513H55.6285C54.6798 70.8513 53.9116 70.0831 53.9116 69.1344C53.9116 68.1857 54.6798 67.4175 55.6285 67.4175H61.2183C61.3768 67.4175 61.5392 67.2551 61.5392 67.0966V49.0494C61.5392 48.1007 62.3074 47.3316 63.2561 47.3316C64.2048 47.3316 64.973 48.1007 64.973 49.0494V67.0966C64.973 69.1665 63.2882 70.8513 61.2183 70.8513Z" fill="white"/>
<path d="M58.0153 77.1974H55.6285C54.6798 77.1974 53.9116 76.4292 53.9116 75.4805C53.9116 74.5319 54.6798 73.7637 55.6285 73.7637H58.0153C58.8336 73.7637 59.5015 73.1239 59.5015 72.3376V69.1346C59.5015 68.1859 60.2696 67.4177 61.2183 67.4177C62.167 67.4177 62.9352 68.1859 62.9352 69.1346V72.3376C62.9352 75.0172 60.7289 77.1974 58.0153 77.1974Z" fill="white"/>
<path d="M56.6193 37.4937C50.4778 37.4937 49.4128 35.3707 48.3899 31.8747L48.2776 31.4896C48.0088 30.5801 48.5263 29.6244 49.4369 29.3556C50.3475 29.0818 51.3022 29.6063 51.5709 30.5149L51.6873 30.911C52.4675 33.5776 52.6079 34.0579 56.6193 34.0579C57.568 34.0579 58.3361 34.8271 58.3361 35.7758C58.3361 36.7245 57.568 37.4937 56.6193 37.4937Z" fill="white"/>
<path d="M56.7356 17.9322C56.5751 17.9322 56.4087 17.9091 56.2462 17.861C50.0787 16.0288 43.5322 16.0278 37.3085 17.862C36.3899 18.1267 35.4432 17.6093 35.1765 16.6997C34.9077 15.7901 35.4272 14.8354 36.3377 14.5666C43.1972 12.5449 50.4217 12.5459 57.225 14.5676C58.1336 14.8384 58.653 15.7941 58.3823 16.7037C58.1596 17.4498 57.4757 17.9322 56.7356 17.9322Z" fill="white"/>
<path d="M59.5877 21.5996C58.9218 21.5996 58.288 21.2095 58.0092 20.5586C57.6362 19.6861 58.0393 18.6773 58.9118 18.3032C60.8874 17.4558 61.7719 16.4981 61.7719 15.9235C61.7719 14.3921 56.4789 11.4117 46.7794 11.4117C37.0799 11.4117 31.7868 14.3921 31.7868 15.9235C31.7868 16.4981 32.6714 17.4558 34.6469 18.3032C35.5194 18.6773 35.9226 19.6862 35.5495 20.5586C35.1765 21.4311 34.1676 21.8352 33.2951 21.4602C28.9949 19.6169 28.3531 17.2001 28.3531 15.9235C28.3531 10.7057 37.6214 7.97594 46.7794 7.97594C55.9373 7.97594 65.2056 10.7057 65.2056 15.9235C65.2056 17.2001 64.5638 19.617 60.2636 21.4602C60.043 21.5544 59.8143 21.5996 59.5877 21.5996Z" fill="white"/>
<path d="M56.15 12.4597C55.2294 12.4597 54.4672 11.7296 54.4351 10.802C54.2907 6.67124 50.9292 3.43607 46.7794 3.43607C42.6296 3.43607 39.2681 6.67124 39.1237 10.802C39.0916 11.7296 38.3294 12.4597 37.4088 12.4597C37.3867 12.4597 37.3667 12.4587 37.3466 12.4587C36.3999 12.4256 35.6578 11.6303 35.6899 10.6816C35.8985 4.69263 40.7704 0.000320435 46.7794 0.000320435C52.7884 0.000320435 57.6603 4.69263 57.8688 10.6816C57.9009 11.6303 57.1588 12.4256 56.2122 12.4587C56.1921 12.4587 56.172 12.4597 56.15 12.4597Z" fill="white"/>
<path d="M18.7759 102C17.8272 102 17.0591 101.231 17.0591 100.283V52.4852C17.0591 51.5365 17.8272 50.7683 18.7759 50.7683C19.7246 50.7683 20.4928 51.5365 20.4928 52.4852V100.283C20.4928 101.231 19.7246 102 18.7759 102Z" fill="white"/>
<path d="M18.7759 41.4529C17.8272 41.4529 17.0591 40.6837 17.0591 39.735V17.9613C17.0591 17.0126 17.8272 16.2434 18.7759 16.2434C19.7246 16.2434 20.4928 17.0126 20.4928 17.9613V39.735C20.4928 40.6837 19.7246 41.4529 18.7759 41.4529Z" fill="white"/>
<path d="M1.71755 26.7231C1.04363 26.7231 0.403817 26.323 0.131049 25.6611C-0.231979 24.7836 0.185201 23.7798 1.06169 23.4178L18.1201 16.3738C18.9926 16.0098 19.9994 16.4289 20.3624 17.3054C20.7255 18.1829 20.3083 19.1868 19.4318 19.5488L2.37341 26.5928C2.1588 26.681 1.93617 26.7231 1.71755 26.7231Z" fill="white"/>
<path d="M18.7759 33.7681C18.5573 33.7681 18.3347 33.726 18.1201 33.6377L1.06169 26.5927C0.185201 26.2307 -0.231979 25.2259 0.131049 24.3494C0.492078 23.4729 1.49492 23.0567 2.37341 23.4177L19.4318 30.4627C20.3083 30.8247 20.7255 31.8296 20.3624 32.7061C20.0897 33.368 19.4498 33.7681 18.7759 33.7681Z" fill="white"/>
<path d="M95.3331 102H75.0155C74.0668 102 73.2986 101.232 73.2986 100.283V92.8297C73.2986 91.881 74.0668 91.1129 75.0155 91.1129H95.3331C96.2818 91.1129 97.0499 91.881 97.0499 92.8297V100.283C97.05 101.232 96.2818 102 95.3331 102ZM76.7323 98.566H93.6162V94.5466H76.7323V98.566Z" fill="white"/>
<path d="M85.2044 94.5465C84.2557 94.5465 83.4875 93.7783 83.4875 92.8296V42.1218C83.4875 41.1731 84.2557 40.4039 85.2044 40.4039C86.1531 40.4039 86.9212 41.1731 86.9212 42.1218V92.8296C86.9212 93.7783 86.1531 94.5465 85.2044 94.5465Z" fill="white"/>
<path d="M94.577 43.8397H74.143C73.1943 43.8397 72.4261 43.0705 72.4261 42.1218V31.6421C72.4261 30.6934 73.1943 29.9242 74.143 29.9242H94.577C95.0062 29.9242 95.4214 30.0857 95.7382 30.3775L101.444 35.6173C101.799 35.9423 102 36.4006 102 36.8819C102 37.3633 101.799 37.8216 101.444 38.1465L95.7382 43.3864C95.4213 43.6782 95.0062 43.8397 94.577 43.8397ZM75.8599 40.4039H93.907L97.7439 36.8819L93.907 33.3599H75.8599V40.4039Z" fill="white"/>
<path d="M85.2044 17.6995C84.2557 17.6995 83.4875 16.9303 83.4875 15.9816V11.2653C83.4875 10.3166 84.2557 9.54739 85.2044 9.54739C86.1531 9.54739 86.9212 10.3166 86.9212 11.2653V15.9816C86.9212 16.9303 86.1531 17.6995 85.2044 17.6995Z" fill="white"/>
<path d="M96.2657 28.1783H75.8298C75.3986 28.1783 74.9854 28.0168 74.6685 27.725L68.9643 22.4861C68.6093 22.1612 68.4087 21.7029 68.4087 21.2215C68.4087 20.7412 68.6093 20.2818 68.9643 19.9569L74.6685 14.7171C74.9854 14.4252 75.3986 14.2638 75.8298 14.2638H96.2657C97.2144 14.2638 97.9826 15.033 97.9826 15.9817V26.4604C97.9826 27.4091 97.2144 28.1783 96.2657 28.1783ZM76.4997 24.7425H94.5489V17.6995H76.4997L72.6648 21.2215L76.4997 24.7425Z" fill="white"/>
</g>
<defs>
<clipPath id="clip0">
<rect width="102" height="102" fill="white"/>
</clipPath>
</defs>
</svg>
