<svg width="74" height="66" viewBox="0 0 74 66" fill="none" xmlns="http://www.w3.org/2000/svg">
<path d="M0.161133 47.3467V65.1689H22.2559V46.9805C22.2559 39.9818 23.1917 33.4714 25.0635 27.4492C27.0166 21.4271 29.9056 15.527 33.7305 9.74902L21.4014 0.959961C17.9834 3.88965 14.9723 7.22624 12.3682 10.9697C9.764 14.7132 7.56673 18.6195 5.77637 22.6885C3.90462 26.8389 2.48047 31.0299 1.50391 35.2617C0.608724 39.4935 0.161133 43.5218 0.161133 47.3467ZM39.834 47.3467V65.1689H61.9287V46.9805C61.9287 39.9818 62.8646 33.4714 64.7363 27.4492C66.6895 21.4271 69.5785 15.527 73.4033 9.74902L61.0742 0.959961C57.6562 3.88965 54.6452 7.22624 52.041 10.9697C49.4368 14.7132 47.2396 18.6195 45.4492 22.6885C43.5775 26.8389 42.1533 31.0299 41.1768 35.2617C40.2816 39.4935 39.834 43.5218 39.834 47.3467Z" fill="#0AB2FA"/>
</svg>
