<svg width="75" height="66" viewBox="0 0 75 66" fill="none" xmlns="http://www.w3.org/2000/svg">
<path d="M34.3125 18.7588V0.814453H12.2178V19.125C12.2178 26.1237 11.2412 32.6341 9.28809 38.6562C7.41634 44.6784 4.56803 50.5785 0.743164 56.3564L13.0723 65.1455C16.4902 62.2158 19.5013 58.8792 22.1055 55.1357C24.7096 51.3923 26.9476 47.4453 28.8193 43.2949C30.6097 39.2259 31.9525 35.0755 32.8477 30.8438C33.8242 26.612 34.3125 22.5837 34.3125 18.7588ZM74.8398 18.7588V0.814453H52.7451V19.125C52.7451 26.1237 51.7686 32.6341 49.8154 38.6562C47.9437 44.6784 45.0954 50.5785 41.2705 56.3564L53.5996 65.1455C57.0176 62.2158 60.0286 58.8792 62.6328 55.1357C65.237 51.3923 67.4749 47.4453 69.3467 43.2949C71.137 39.2259 72.4798 35.0755 73.375 30.8438C74.3516 26.612 74.8398 22.5837 74.8398 18.7588Z" fill="#0AB2FA"/>
</svg>
